# xmcd
#
# Track frame offsets:
#       150
#       14792
#       26014
#       40194
#       52655
#       69183
#       82752
#       93734
#       109219
#       119010
#       129506
#       144749
#       155814
#       169259
#       184206
#       194620
#       207613
#       228313
#       247171
#       263245
#       279564
#       291619
#       306410
#       319781
#       337090
#
# Disc length: 4709 seconds
#
# Revision: 0
# Processed by: cddbd v1.5.2PL0 Copyright (c) Steve Scherf et al.
# Submitted via: WhereIsIt 3.65
#
DISCID=8f126319
DTITLE=Michal Tucny - Best Of CD01
DYEAR=2006
DGENRE=Folk
TTITLE0=Posledni kovboj
TTITLE1=Blues Folsomske veznice
TTITLE2=Vlak pulnocni
TTITLE3=Rovnou, tady rovnou
TTITLE4=Dnesni noc bude dlouha
TTITLE5=Blizko Little Big Hornu
TTITLE6=Toulavej song
TTITLE7=El Paso
TTITLE8=Znackovaci zelezo
TTITLE9=Odjizdim v dal
TTITLE10=Jeste je cas
TTITLE11=Sest bilych koni
TTITLE12=Sundej z hodin zavazi
TTITLE13=Davej vinu dalkam
TTITLE14=Hotel Zvon
TTITLE15=Snidane v trave
TTITLE16=Modra z dzin
TTITLE17=Bajecna zenska
TTITLE18=Vanek s vuni burcaku
TTITLE19=Koukam, jak cela zeme vstava
TTITLE20=Par rezavejch koleji
TTITLE21=Dilema
TTITLE22=Boty z kuze toulavejch psu
TTITLE23=Tam u nebeskych bran
TTITLE24=Jeste dlouhou cestu mam
EXTD=
EXTT0=
EXTT1=
EXTT2=
EXTT3=
EXTT4=
EXTT5=
EXTT6=
EXTT7=
EXTT8=
EXTT9=
EXTT10=
EXTT11=
EXTT12=
EXTT13=
EXTT14=
EXTT15=
EXTT16=
EXTT17=
EXTT18=
EXTT19=
EXTT20=
EXTT21=
EXTT22=
EXTT23=
EXTT24=
PLAYORDER=
